**ABCDEFGHIJKLMNOPQRSTUVWXYZabcdefghijklmnopqrstuvwxyz**************************
**PARASOLID !"#$%&'()*+,-./:;<=>?@[\]^_`{|}~0123456789**************************
**PART1;
MC=AMD64;
MC_MODEL=Intel64 Family 6 Model 158 Stepping 10, GenuineIntel;
MC_ID=unknown;
OS=Windows_NT;
OS_RELEASE=unknown;
FRU=Parasolid Version 29.0, build 201,  4-17-2017;
APPL=SOLIDWORKS 2017-2017317;
SITE=;
USER=unknown;
FORMAT=text;
GUISE=transmit;
KEY=Jason - MEMSAssignment_Model2;
FILE=Jason - MEMSAssignment_Model2.x_t;
DATE=Tue Aug 25 23:31:43 2020;
**PART2;
SCH=SCH_2900201_28101;
USFLD_SIZE=0;
**PART3;
**END_OF_HEADER*****************************************************************
T51 : TRANSMIT FILE created by modeller version 290020123 SCH_2900201_28101_1300
6203 0 12 33 CCCCCCI4 mesh1006 0 I8 polyline1008 0 CCCCCCCDI5 owner1040 0 CCCCCC
I13 boundary_mesh1006 0 I17 boundary_polyline1008 0 CCCA16 index_map_offset0 0 1
 dA9 index_map82 0 A17 node_id_index_map82 0 A20 schema_embedding_map82 0 A5 chi
ld12 0 A14 lowest_node_id0 0 1 dZ1 2299 2 3 0 4 0 0 0 0 1e3 1e-8 0 5 0 1 0 1 1 6
 7 8 9 0 0 10 11 12 0 0 0 0 0 0 81 255 2 2 140 13 1 0 0 0 0 14 0 70 11 CI9 list_
type0 0 1 uI10 notransmit0 0 1 lCCCDCCDI12 finger_index0 0 1 dI12 finger_block10
12 0 CZ3 0 4 T1 0 0 3 20 1 15 15 133 255 4 2182 0 1 16 0 0 +17 2e-5 12e-5 25e-7
 2e-5 12e-5 -25e-7 -5e-6 0 13 255 6 94 0 1 0 18 0 0 19 0 50 255 7 89 0 18 20 0 0
 +2e-5 12e-5 -25e-7 -1 0 0 0 0 1 30 255 8 93 0 11 21 0 0 +2e-5 12e-5 -25e-7 0 -1
 0 29 255 9 70 0 22 23 0 2e-5 0 25e-7 19 8 CCCCCCCA5 owner12 0 Z10 28 0 1 19 0 2
4 V0 16 255 11 77 0 ?25 0 26 8 0 0 1 18 255 12 25 0 27 0 28 29 ?1 17 255 27 0 30
 31 32 12 33 34 0 35 +18 28 22 0 32 12 36 37 ?1 29 29 27 0 12 37 38 2e-5 12e-5 2
5e-7 29 37 24 0 28 39 29 -2e-5 12e-5 25e-7 29 38 73 0 40 29 41 2e-5 0 -25e-7 18
 40 64 0 42 43 0 38 ?1 29 41 72 0 43 38 23 -2e-5 0 -25e-7 18 43 63 0 44 45 40 41
 ?1 29 23 71 0 45 41 9 -2e-5 0 25e-7 18 45 62 0 46 22 43 23 ?1 17 46 0 47 48 49
 45 50 51 0 52 +18 22 61 0 53 54 45 9 ?1 17 53 0 55 35 52 22 56 57 0 58 +18 54 1
6 0 59 36 22 60 ?1 17 59 0 61 25 62 54 63 64 0 31 -18 36 19 0 63 28 54 39 ?1 29
 60 18 0 54 0 39 2e-5 12e-5 -25e-7 29 39 21 0 36 60 37 -2e-5 12e-5 -25e-7 17 63
 0 30 32 31 36 59 64 0 62 +15 255 30 3 0 31 65 0 17 32 0 30 27 63 28 66 67 0 48
 +17 31 0 30 63 27 54 68 69 0 70 +16 64 7 0 ?63 67 69 71 0 0 1 17 62 0 61 59 44
 36 49 26 0 66 -15 61 82 0 44 72 0 17 44 0 61 62 25 43 42 73 0 49 +17 49 0 47 46
 66 43 62 26 0 50 +16 26 76 0 ?49 11 74 21 0 0 1 17 66 0 47 49 48 36 32 67 0 0 -
15 47 80 0 46 75 0 17 48 0 47 66 46 28 52 74 0 33 -16 67 10 0 ?32 34 64 76 0 0 1
 16 34 13 0 ?27 77 67 78 0 0 1 30 76 11 0 67 71 78 0 +-2e-5 12e-5 -25e-7 0 0 1 3
0 71 8 0 64 17 76 0 +-2e-5 12e-5 -25e-7 -1 0 0 30 78 14 0 34 76 79 80 +-2e-5 12e
-5 25e-7 1 0 0 30 79 69 0 81 78 82 0 +2e-5 0 -25e-7 0 0 -1 141 255 80 83 84 84 7
8 133 83 844 0 1 0 85 0 +78 -2e-5 12e-5 25e-7 2e-5 12e-5 25e-7 0 4e-5 141 84 86
 80 80 78 133 86 1170 0 1 85 87 0 +78 -2e-5 12e-5 25e-7 2e-5 12e-5 25e-7 0 4e-5
 133 85 1024 0 1 83 86 0 +17 2e-5 12e-5 25e-7 2e-5 12e-5 -25e-7 -5e-6 0 133 87 1
437 0 1 86 16 0 +17 2e-5 12e-5 25e-7 2e-5 12e-5 -25e-7 -5e-6 0 133 16 2001 0 1 8
7 4 0 +17 2e-5 12e-5 25e-7 2e-5 12e-5 -25e-7 -5e-6 0 30 17 5 0 69 0 71 88 +2e-5
 12e-5 -25e-7 0 0 -1 16 69 4 0 ?31 64 57 17 0 0 1 141 88 85 89 90 17 141 89 4 91
 88 17 141 90 87 88 91 17 141 91 16 90 89 17 16 57 45 0 ?53 69 51 92 0 0 1 16 51
 49 0 ?46 57 73 93 0 0 1 30 92 66 0 57 93 94 0 +-2e-5 0 25e-7 1 0 0 30 93 67 0 5
1 82 92 0 +-2e-5 0 -25e-7 0 0 1 30 94 90 0 77 92 95 0 +2e-5 12e-5 25e-7 0 -1 0 1
6 77 74 0 ?58 74 34 94 0 0 1 30 95 91 0 74 94 21 0 +-2e-5 12e-5 25e-7 0 -1 0 16
 74 75 0 ?52 26 77 95 0 0 1 30 21 92 0 26 95 8 0 +-2e-5 12e-5 -25e-7 0 -1 0 17 5
2 0 55 53 33 45 48 74 0 56 +15 55 78 0 53 96 0 17 33 0 55 52 35 28 27 34 0 0 -17
 56 0 97 50 98 45 53 57 0 0 -15 97 44 0 98 99 0 17 50 0 97 42 56 43 46 51 0 0 -1
7 98 0 97 56 42 22 100 81 0 0 -17 42 0 97 98 50 40 44 73 0 25 -17 100 0 101 70 5
8 40 98 81 0 0 +16 81 57 0 ?100 73 0 79 0 0 1 16 73 53 0 ?44 51 81 82 0 0 1 30 8
2 68 0 73 79 93 0 +-2e-5 0 -25e-7 -1 0 0 15 101 84 0 100 18 0 17 70 0 101 68 100
 54 25 11 0 0 -17 58 0 101 100 68 22 35 77 0 98 +17 68 0 101 58 70 12 31 69 0 0
 -17 35 0 55 33 53 12 58 77 0 68 -17 25 0 61 44 59 40 70 11 0 100 +14 255 18 85
 102 ?72 0 101 6 7 -0 0 72 0 24 81 1 102 2294 103 18 104 0 0 105 106 14 72 83 10
5 ?75 18 61 6 20 -0 0 75 18 24 13 24 29 0 0 0 0 0 0 10 18 81 1 105 2295 103 72 1
07 0 102 108 109 14 75 81 108 ?96 72 47 6 110 -0 0 96 72 24 50 20 88 0 72 110 7
 0 +-2e-5 12e-5 -25e-7 0 0 1 1 0 0 50 110 87 0 75 111 20 0 +-2e-5 12e-5 -25e-7 1
 0 0 0 0 -1 50 111 86 0 96 112 110 0 +-2e-5 12e-5 25e-7 0 0 -1 -1 0 0 14 96 79 1
13 ?65 75 55 6 111 -0 0 65 75 24 50 112 65 0 99 114 111 0 +0 0 0 0 1 0 0 0 1 14
 99 43 115 ?0 65 97 6 112 -0 0 0 65 24 50 114 2 0 65 0 112 0 +0 12e-5 0 0 1 0 0
 0 1 14 65 1 116 ?99 96 30 6 114 +0 0 99 96 24 81 1 116 2299 103 65 117 0 115 0
 118 80 255 1 103 119 120 9000 1 1 1 1 1 1 1 1 0 FFFFTFTFFFFFFF1 81 1 117 2278 1
21 65 0 116 122 123 124 81 1 115 2298 103 99 123 0 113 116 125 82 255 1 118 9237
95591 81 1 123 2279 121 99 0 115 117 0 126 81 1 113 2297 103 96 122 0 108 115 12
7 82 1 125 929431687 81 1 122 2277 121 96 0 113 128 117 129 81 1 108 2296 103 75
 128 0 105 113 130 82 1 127 930349191 81 1 128 2276 121 75 0 108 107 122 131 82
 1 130 930611335 80 1 121 0 132 8001 0 0 0 0 3 5 0 0 0 FFFFTFTFFFFFFF2 81 1 107
 2275 121 72 0 105 104 128 133 83 255 3 131 .776470588235294 .756862745098039 .7
37254901960784 81 1 104 2274 121 18 0 102 0 107 134 83 3 133 .776470588235294 .7
56862745098039 .737254901960784 83 3 134 .776470588235294 .756862745098039 .7372
54901960784 79 255 15 132 SDL/TYSA_COLOUR83 3 129 .776470588235294 .756862745098
039 .737254901960784 83 3 126 .776470588235294 .756862745098039 .737254901960784
 83 3 124 .776470588235294 .756862745098039 .737254901960784 79 14 120 SWEntUnch
anged82 1 109 930873479 82 1 106 931135623 19 19 95 0 1 0 10 6 S0 74 4 CI16 inde
x_map_offset0 0 1 dCCZ20 15 3 0 0 116 2 123 0 0 0 0 0 0 0 0 0 0 0 0 0 0 0 0 0 80
 2 13 135 136 8004 0 0 0 0 3 5 0 0 0 FFTFFFFFFFFFFF2 3 83 1 14 1 79 16 136 SDL/T
YSA_DENSITY1 0 
