**ABCDEFGHIJKLMNOPQRSTUVWXYZabcdefghijklmnopqrstuvwxyz**************************
**PARASOLID !"#$%&'()*+,-./:;<=>?@[\]^_`{|}~0123456789**************************
**PART1;
MC=AMD64;
MC_MODEL=Intel64 Family 6 Model 158 Stepping 10, GenuineIntel;
MC_ID=unknown;
OS=Windows_NT;
OS_RELEASE=unknown;
FRU=Parasolid Version 29.0, build 201,  4-17-2017;
APPL=SOLIDWORKS 2017-2017317;
SITE=;
USER=unknown;
FORMAT=text;
GUISE=transmit;
KEY=Jason - MEMSAssignment_Model1;
FILE=Jason - MEMSAssignment_Model1.x_t;
DATE=Wed Aug 26 00:21:00 2020;
**PART2;
SCH=SCH_2900201_28101;
USFLD_SIZE=0;
**PART3;
**END_OF_HEADER*****************************************************************
T51 : TRANSMIT FILE created by modeller version 290020123 SCH_2900201_28101_1300
6203 0 10 19 CCCCCCCI4 mesh1006 0 I8 polyline1008 0 CCCCCCCCCCZ1 7 2 3 0 0 0 0 0
 0 0 1e3 1e-8 0 0 0 1 0 1 4 81 255 2 2 7 5 1 0 0 0 0 0 0 70 11 CI9 list_type0 0
 1 uI10 notransmit0 0 1 lCCCDCCDI12 finger_index0 0 1 dI12 finger_block1012 0 CZ
3 0 4 T1 0 0 1 20 1 6 6 11 255 4 5 0 1 7 8 1 9 0 0 0 12 33 CCCCCCI4 mesh1006 0 I
8 polyline1008 0 CCCCCCCDI5 owner1040 0 CCCCCCI13 boundary_mesh1006 0 I17 bounda
ry_polyline1008 0 CCCA16 index_map_offset0 0 1 dA9 index_map82 0 A17 node_id_ind
ex_map82 0 A20 schema_embedding_map82 0 A5 child12 0 A14 lowest_node_id0 0 1 dZ7
 900 10 11 0 0 0 0 0 0 1e3 1e-8 4 12 0 1 0 1 1 13 14 15 16 0 0 17 18 19 0 0 0 0
 0 0 100 255 8 6 4 0 0 1 0 0 0 1 0 0 0 1 0 0 0 1 0 ?11 9 3 0 1 12 20 1 21 4 0 0
 12 12 826 22 23 0 0 0 0 0 0 1e3 1e-8 9 24 7 1 0 1 1 25 26 27 28 0 0 29 30 31 0
 0 0 0 0 0 100 20 4 9 0 0 1 0 0 0 1 0 0 0 1 0 0 0 1 0 ?11 21 1 0 1 24 32 1 0 9 0
 0 12 24 657 33 34 0 35 0 0 0 0 1e3 1e-8 21 36 12 1 0 1 1 37 38 39 40 0 0 41 42
 43 0 0 0 0 0 0 100 32 2 21 0 0 1 0 0 0 1 0 0 0 1 0 0 0 1 0 ?81 1 33 657 44 24 4
5 0 0 0 0 70 34 0 4 T24 0 0 4 20 1 46 46 133 255 35 573 0 24 47 0 0 +48 -15e-5 3
e-5 5e-6 -15e-5 -3e-5 5e-6 0 6e-5 13 255 37 94 0 24 0 49 0 0 50 0 50 255 38 89 0
 49 51 0 0 +15e-5 3e-5 5e-6 -1 0 0 0 0 1 30 255 39 93 0 42 52 0 0 +15e-5 3e-5 5e
-6 0 0 -1 29 255 40 70 0 53 54 0 15e-5 -3e-5 0 19 8 CCCCCCCA5 owner12 0 Z41 28 0
 24 50 0 55 V0 16 255 42 77 0 ?56 0 57 39 0 0 24 18 255 43 25 0 58 0 59 60 ?24 1
7 255 58 0 61 62 63 43 64 65 0 66 +18 59 22 0 63 43 67 68 ?24 29 60 27 0 43 68 6
9 15e-5 -3e-5 5e-6 29 68 24 0 59 70 60 -15e-5 -3e-5 5e-6 29 69 73 0 71 60 72 15e
-5 3e-5 0 18 71 64 0 73 74 0 69 ?24 29 72 72 0 74 69 54 -15e-5 3e-5 0 18 74 63 0
 75 76 71 72 ?24 29 54 71 0 76 72 40 -15e-5 -3e-5 0 18 76 62 0 77 53 74 54 ?24 1
7 77 0 78 79 80 76 81 82 0 83 +18 53 61 0 84 85 76 40 ?24 17 84 0 86 66 83 53 87
 88 0 89 +18 85 16 0 90 67 53 91 ?24 17 90 0 92 56 93 85 94 95 0 62 -18 67 19 0
 94 59 85 70 ?24 29 91 18 0 85 0 70 15e-5 3e-5 5e-6 29 70 21 0 67 91 68 -15e-5 3
e-5 5e-6 17 94 0 61 63 62 67 90 95 0 93 +15 255 61 3 0 62 96 0 17 63 0 61 58 94
 59 97 98 0 79 +17 62 0 61 94 58 85 99 100 0 101 +16 95 7 0 ?94 98 100 102 0 0 2
4 17 93 0 92 90 75 67 80 57 0 97 -15 92 82 0 75 103 0 17 75 0 92 93 56 74 73 104
 0 80 +17 80 0 78 77 97 74 93 57 0 81 +16 57 76 0 ?80 42 105 52 0 0 24 17 97 0 7
8 80 79 67 63 98 0 0 -15 78 80 0 77 106 0 17 79 0 78 97 77 59 83 105 0 64 -16 98
 10 0 ?63 65 95 48 0 0 24 16 65 13 0 ?58 107 98 108 0 0 24 30 48 11 0 98 102 108
 109 +-15e-5 3e-5 5e-6 0 -1 0 30 102 8 0 95 110 48 0 +-15e-5 3e-5 5e-6 -1 0 0 30
 108 14 0 65 48 111 0 +-15e-5 -3e-5 5e-6 1 0 0 141 255 109 47 112 112 48 133 47
 498 0 24 113 35 0 +48 -15e-5 3e-5 5e-6 -15e-5 -3e-5 5e-6 0 6e-5 141 112 35 109
 109 48 133 113 341 0 24 0 47 0 +114 -15e-5 -3e-5 5e-6 -15e-5 -3e-5 169406589450
86e-34 0 5e-6 30 114 91 0 105 115 52 116 +-15e-5 -3e-5 5e-6 0 0 -1 16 105 75 0 ?
83 57 107 114 0 0 24 30 115 90 0 107 117 114 0 +15e-5 -3e-5 5e-6 0 0 -1 30 52 92
 0 57 114 39 0 +-15e-5 3e-5 5e-6 0 0 -1 141 116 113 116 116 114 16 107 74 0 ?89
 105 65 115 0 0 24 30 117 66 0 88 118 115 0 +-15e-5 -3e-5 0 1 0 0 16 88 45 0 ?84
 100 82 117 0 0 24 30 118 67 0 82 119 117 0 +-15e-5 3e-5 0 0 -1 0 16 82 49 0 ?77
 88 104 118 0 0 24 30 119 68 0 104 111 118 0 +-15e-5 3e-5 0 -1 0 0 16 104 53 0 ?
75 82 120 119 0 0 24 30 111 69 0 120 108 119 0 +15e-5 3e-5 0 0 1 0 16 120 57 0 ?
121 104 0 111 0 0 24 17 121 0 122 101 89 71 123 120 0 0 +15 122 84 0 121 49 0 17
 101 0 122 99 121 85 56 42 0 0 -17 89 0 122 121 99 53 66 107 0 123 +17 123 0 124
 87 73 53 121 120 0 0 -15 124 44 0 123 125 0 17 87 0 124 81 123 76 84 88 0 0 -17
 73 0 124 123 81 71 75 104 0 56 -17 81 0 124 73 87 74 77 82 0 0 -17 56 0 92 75 9
0 71 101 42 0 121 +14 255 125 43 126 ?0 96 124 37 127 -0 0 0 96 55 81 1 126 651
 128 125 129 0 0 130 131 14 96 1 130 ?125 132 61 37 133 +0 0 125 132 55 50 127 6
5 0 125 133 134 0 +0 0 0 0 0 1 1 0 0 13 55 29 0 0 0 0 0 0 41 49 14 49 85 135 ?10
3 0 122 37 38 -0 0 103 0 55 81 1 135 653 128 49 136 0 130 137 138 14 103 83 137
 ?106 49 92 37 51 -0 0 106 49 55 81 1 137 654 128 103 139 0 135 140 141 14 106 8
1 140 ?132 103 78 37 142 -0 0 132 103 55 50 51 88 0 103 142 38 0 +-15e-5 3e-5 5e
-6 0 -1 0 0 0 -1 50 142 87 0 106 134 51 0 +-15e-5 3e-5 5e-6 1 0 0 0 0 -1 50 134
 86 0 132 127 142 0 +-15e-5 -3e-5 5e-6 0 1 0 0 0 1 14 132 79 143 ?96 106 86 37 1
34 -0 0 96 106 55 81 1 143 656 128 132 144 0 140 0 145 15 86 78 0 84 132 0 80 25
5 1 128 146 147 9000 1 1 1 1 1 1 1 1 0 FFFFTFTFFFFFFF1 81 1 144 634 148 132 0 14
3 149 150 151 81 1 140 655 128 106 149 0 137 143 152 82 255 1 145 561774882 81 1
 149 633 148 106 0 140 139 144 153 82 1 152 562037026 80 1 148 0 154 8001 0 0 0
 0 3 5 0 0 0 FFFFTFTFFFFFFF2 81 1 139 632 148 103 0 137 136 149 155 83 255 3 153
 .529411764705882 .549019607843137 .549019607843137 81 1 136 631 148 49 0 135 0
 139 156 83 3 155 .529411764705882 .549019607843137 .549019607843137 83 3 156 .5
29411764705882 .549019607843137 .549019607843137 79 255 15 154 SDL/TYSA_COLOUR81
 1 150 635 148 96 0 130 144 129 157 83 3 151 .529411764705882 .549019607843137 .
549019607843137 81 1 130 652 128 96 150 0 126 135 158 81 1 129 636 148 125 0 126
 150 0 159 83 3 157 .529411764705882 .549019607843137 .549019607843137 83 3 159
 .529411764705882 .549019607843137 .549019607843137 82 1 158 555221282 79 14 147
 SWEntUnchanged82 1 141 562299170 82 1 138 562561314 50 133 2 0 96 0 127 0 +0 0
 5e-6 0 0 1 1 0 0 82 1 131 560857378 17 99 0 122 89 101 43 62 100 0 0 -17 66 0 8
6 64 84 43 89 107 0 99 -17 64 0 86 83 66 59 58 65 0 0 -17 83 0 86 84 64 76 79 10
5 0 87 +16 100 4 0 ?62 95 88 110 0 0 24 30 110 5 0 100 0 102 0 +15e-5 3e-5 5e-6
 0 1 0 19 50 95 0 24 0 41 37 S0 74 4 CI16 index_map_offset0 0 1 dCCZ20 46 4 0 0
 143 45 129 33 0 0 0 0 0 0 0 0 0 0 0 0 0 0 0 0 81 2 45 164 160 24 0 33 0 0 161 0
 80 2 160 162 163 8004 0 0 0 0 3 5 0 0 0 FFTFFFFFFFFFFF2 3 83 1 161 1 79 16 163
 SDL/TYSA_DENSITY80 1 44 164 165 8017 0 0 0 0 0 0 0 0 0 TTTTTTTTTTTTTF3 79 13 16
5 SDL/TYSA_NAME81 1 22 826 44 12 166 0 0 0 0 70 23 0 4 T12 0 0 4 20 1 167 167 13
 25 94 0 12 0 168 0 0 169 0 50 26 89 0 168 170 0 0 +16e-5 2e-5 1e-5 -1 0 0 0 0 1
 30 27 93 0 30 171 0 0 +16e-5 2e-5 1e-5 0 0 -1 29 28 70 0 172 173 0 16e-5 -2e-5
 5e-6 19 29 28 0 12 169 0 174 V0 16 30 77 0 ?175 0 176 27 0 0 12 18 31 25 0 177
 0 178 179 ?12 17 177 0 180 181 182 31 183 184 0 185 +18 178 22 0 182 31 186 187
 ?12 29 179 27 0 31 187 188 16e-5 -2e-5 1e-5 29 187 24 0 178 189 179 -16e-5 -2e-
5 1e-5 29 188 73 0 190 179 191 16e-5 2e-5 5e-6 18 190 64 0 192 193 0 188 ?12 29
 191 72 0 193 188 173 -16e-5 2e-5 5e-6 18 193 63 0 194 195 190 191 ?12 29 173 71
 0 195 191 28 -16e-5 -2e-5 5e-6 18 195 62 0 196 172 193 173 ?12 17 196 0 197 198
 199 195 200 201 0 202 +18 172 61 0 203 204 195 28 ?12 17 203 0 205 185 202 172
 206 207 0 208 +18 204 16 0 209 186 172 210 ?12 17 209 0 211 175 212 204 213 214
 0 181 -18 186 19 0 213 178 204 189 ?12 29 210 18 0 204 0 189 16e-5 2e-5 1e-5 29
 189 21 0 186 210 187 -16e-5 2e-5 1e-5 17 213 0 180 182 181 186 209 214 0 212 +1
5 180 3 0 181 215 0 17 182 0 180 177 213 178 216 217 0 198 +17 181 0 180 213 177
 204 218 219 0 220 +16 214 7 0 ?213 217 219 221 0 0 12 17 212 0 211 209 194 186
 199 176 0 216 -15 211 82 0 194 222 0 17 194 0 211 212 175 193 192 223 0 199 +17
 199 0 197 196 216 193 212 176 0 200 +16 176 76 0 ?199 30 224 171 0 0 12 17 216
 0 197 199 198 186 182 217 0 0 -15 197 80 0 196 225 0 17 198 0 197 216 196 178 2
02 224 0 183 -16 217 10 0 ?182 184 214 226 0 0 12 16 184 13 0 ?177 227 217 228 0
 0 12 30 226 11 0 217 221 228 0 +-16e-5 2e-5 1e-5 0 -1 0 30 221 8 0 214 229 226
 0 +-16e-5 2e-5 1e-5 -1 0 0 30 228 14 0 184 226 230 0 +-16e-5 -2e-5 1e-5 1 0 0 3
0 230 69 0 231 228 232 0 +16e-5 2e-5 5e-6 0 1 0 16 231 57 0 ?233 223 0 230 0 0 1
2 30 232 68 0 223 230 234 0 +-16e-5 2e-5 5e-6 -1 0 0 16 223 53 0 ?194 201 231 23
2 0 0 12 30 234 67 0 201 232 235 0 +-16e-5 2e-5 5e-6 0 -1 0 16 201 49 0 ?196 207
 223 234 0 0 12 30 235 66 0 207 234 236 0 +-16e-5 -2e-5 5e-6 1 0 0 16 207 45 0 ?
203 219 201 235 0 0 12 30 236 90 0 227 235 237 0 +16e-5 -2e-5 1e-5 0 0 -1 16 227
 74 0 ?208 224 184 236 0 0 12 30 237 91 0 224 236 171 0 +-16e-5 -2e-5 1e-5 0 0 -
1 16 224 75 0 ?202 176 227 237 0 0 12 30 171 92 0 176 237 27 0 +-16e-5 2e-5 1e-5
 0 0 -1 17 202 0 205 203 183 195 198 224 0 206 +15 205 78 0 203 238 0 17 183 0 2
05 202 185 178 177 184 0 0 -17 206 0 239 200 240 195 203 207 0 0 -15 239 44 0 24
0 241 0 17 200 0 239 192 206 193 196 201 0 0 -17 240 0 239 206 192 172 233 231 0
 0 -17 192 0 239 240 200 190 194 223 0 175 -17 233 0 242 220 208 190 240 231 0 0
 +15 242 84 0 233 168 0 17 220 0 242 218 233 204 175 30 0 0 -17 208 0 242 233 21
8 172 185 227 0 240 +17 218 0 242 208 220 31 181 219 0 0 -17 185 0 205 183 203 3
1 208 227 0 218 -16 219 4 0 ?181 214 207 229 0 0 12 30 229 5 0 219 0 221 0 +16e-
5 2e-5 1e-5 0 1 0 17 175 0 211 194 209 190 220 30 0 233 +14 168 85 243 ?222 0 24
2 25 26 -0 0 222 0 174 81 1 243 820 128 168 244 0 0 245 246 14 222 83 245 ?225 1
68 211 25 170 -0 0 225 168 174 13 174 29 0 0 0 0 0 0 29 168 81 1 245 821 128 222
 247 0 243 248 249 14 225 81 248 ?238 222 197 25 250 -0 0 238 222 174 50 170 88
 0 222 250 26 0 +-16e-5 2e-5 1e-5 0 -1 0 0 0 -1 50 250 87 0 225 251 170 0 +-16e-
5 2e-5 1e-5 1 0 0 0 0 -1 50 251 86 0 238 252 250 0 +-16e-5 -2e-5 1e-5 0 1 0 0 0
 1 14 238 79 253 ?215 225 205 25 251 -0 0 215 225 174 50 252 65 0 241 254 251 0
 +0 0 5e-6 0 0 1 1 0 0 14 241 43 255 ?0 215 239 25 252 -0 0 0 215 174 50 254 2 0
 215 0 252 0 +0 0 1e-5 0 0 1 1 0 0 14 215 1 256 ?241 238 180 25 254 +0 0 241 238
 174 81 1 256 825 128 215 257 0 255 0 258 81 1 257 804 148 215 0 256 259 260 261
 81 1 255 824 128 241 260 0 253 256 262 82 1 258 742588709 81 1 260 805 148 241
 0 255 257 0 263 81 1 253 823 128 238 259 0 248 255 264 82 1 262 748224805 81 1
 259 803 148 238 0 253 265 257 266 81 1 248 822 128 225 265 0 245 253 267 82 1 2
64 749142309 81 1 265 802 148 225 0 248 247 259 268 82 1 267 749404453 81 1 247
 801 148 222 0 245 244 265 269 83 3 268 .529411764705882 .549019607843137 .54901
9607843137 81 1 244 800 148 168 0 243 0 247 270 83 3 269 .529411764705882 .54901
9607843137 .549019607843137 83 3 270 .529411764705882 .549019607843137 .54901960
7843137 83 3 266 .529411764705882 .549019607843137 .549019607843137 83 3 263 .52
9411764705882 .549019607843137 .549019607843137 83 3 261 .529411764705882 .54901
9607843137 .549019607843137 82 1 249 749666597 82 1 246 749928741 19 169 95 0 12
 0 29 25 S0 74 20 167 4 0 0 256 166 260 22 0 0 0 0 0 0 0 0 0 0 0 0 0 0 0 0 81 2
 166 165 160 12 0 22 0 0 271 0 83 1 271 1 81 1 10 900 44 7 272 0 0 0 0 70 11 0 4
 T7 0 0 4 20 1 273 273 13 13 94 0 7 0 274 0 0 275 0 50 14 89 0 274 276 0 0 +16e-
5 -2e-5 -5e-6 -1 0 0 0 0 1 30 15 93 0 18 277 0 0 +16e-5 -2e-5 -5e-6 0 0 1 29 16
 70 0 278 279 0 16e-5 2e-5 0 19 17 28 0 7 275 0 280 V0 16 18 77 0 ?281 0 282 15
 0 0 7 18 19 25 0 283 0 284 285 ?7 17 283 0 286 287 288 19 289 290 0 291 +18 284
 22 0 288 19 292 293 ?7 29 285 27 0 19 293 294 16e-5 2e-5 -5e-6 29 293 24 0 284
 295 285 -16e-5 2e-5 -5e-6 29 294 73 0 296 285 297 16e-5 -2e-5 0 18 296 64 0 298
 299 0 294 ?7 29 297 72 0 299 294 279 -16e-5 -2e-5 0 18 299 63 0 300 301 296 297
 ?7 29 279 71 0 301 297 16 -16e-5 2e-5 0 18 301 62 0 302 278 299 279 ?7 17 302 0
 303 304 305 301 306 307 0 308 +18 278 61 0 309 310 301 16 ?7 17 309 0 311 291 3
08 278 312 313 0 314 +18 310 16 0 315 292 278 316 ?7 17 315 0 317 281 318 310 31
9 320 0 287 -18 292 19 0 319 284 310 295 ?7 29 316 18 0 310 0 295 16e-5 -2e-5 -5
e-6 29 295 21 0 292 316 293 -16e-5 -2e-5 -5e-6 17 319 0 286 288 287 292 315 320
 0 318 +15 286 3 0 287 321 0 17 288 0 286 283 319 284 322 323 0 304 +17 287 0 28
6 319 283 310 324 325 0 326 +16 320 7 0 ?319 323 325 327 0 0 7 17 318 0 317 315
 300 292 305 282 0 322 -15 317 82 0 300 328 0 17 300 0 317 318 281 299 298 329 0
 305 +17 305 0 303 302 322 299 318 282 0 306 +16 282 76 0 ?305 18 330 277 0 0 7
 17 322 0 303 305 304 292 288 323 0 0 -15 303 80 0 302 331 0 17 304 0 303 322 30
2 284 308 330 0 289 -16 323 10 0 ?288 290 320 332 0 0 7 16 290 13 0 ?283 333 323
 334 0 0 7 30 332 11 0 323 327 334 0 +-16e-5 -2e-5 -5e-6 0 1 0 30 327 8 0 320 33
5 332 0 +-16e-5 -2e-5 -5e-6 -1 127054942088145e-30 0 30 334 14 0 290 332 336 0 +
-16e-5 2e-5 -5e-6 1 -1376428539288238e-31 0 30 336 69 0 337 334 338 0 +16e-5 -2e
-5 0 0 -1 0 16 337 57 0 ?339 329 0 336 0 0 7 30 338 68 0 329 336 340 0 +-16e-5 -
2e-5 0 -1 127054942088145e-30 0 16 329 53 0 ?300 307 337 338 0 0 7 30 340 67 0 3
07 338 341 0 +-16e-5 -2e-5 0 0 1 0 16 307 49 0 ?302 313 329 340 0 0 7 30 341 66
 0 313 340 342 0 +-16e-5 2e-5 0 1 -1376428539288238e-31 0 16 313 45 0 ?309 325 3
07 341 0 0 7 30 342 90 0 333 341 343 0 +16e-5 2e-5 -5e-6 0 0 1 16 333 74 0 ?314
 330 290 342 0 0 7 30 343 91 0 330 342 277 0 +-16e-5 2e-5 -5e-6 0 0 1 16 330 75
 0 ?308 282 333 343 0 0 7 30 277 92 0 282 343 15 0 +-16e-5 -2e-5 -5e-6 0 0 1 17
 308 0 311 309 289 301 304 330 0 312 +15 311 78 0 309 344 0 17 289 0 311 308 291
 284 283 290 0 0 -17 312 0 345 306 346 301 309 313 0 0 -15 345 44 0 346 347 0 17
 306 0 345 298 312 299 302 307 0 0 -17 346 0 345 312 298 278 339 337 0 0 -17 298
 0 345 346 306 296 300 329 0 281 -17 339 0 348 326 314 296 346 337 0 0 +15 348 8
4 0 339 274 0 17 326 0 348 324 339 310 281 18 0 0 -17 314 0 348 339 324 278 291
 333 0 346 +17 324 0 348 314 326 19 287 325 0 0 -17 291 0 311 289 309 19 314 333
 0 324 -16 325 4 0 ?287 320 313 335 0 0 7 30 335 5 0 325 0 327 0 +16e-5 -2e-5 -5
e-6 0 -1 0 17 281 0 317 300 315 296 326 18 0 339 +14 274 85 349 ?328 0 348 13 14
 -0 0 328 0 280 81 1 349 894 128 274 350 0 0 351 352 14 328 83 351 ?331 274 317
 13 276 -0 0 331 274 280 13 280 29 0 0 0 0 0 0 17 274 81 1 351 895 128 328 353 0
 349 354 355 14 331 81 354 ?344 328 303 13 356 -0 0 344 328 280 50 276 88 0 328
 356 14 0 +-16e-5 -2e-5 -5e-6 127054942088145e-30 1 0 -1 127054942088145e-30 0 5
0 356 87 0 331 357 276 0 +-16e-5 -2e-5 -5e-6 1 0 0 0 0 -1 50 357 86 0 344 358 35
6 0 +-16e-5 2e-5 -5e-6 -1376428539288238e-31 -1 0 1 -1376428539288238e-31 0 14 3
44 79 359 ?321 331 311 13 357 -0 0 321 331 280 50 358 65 0 347 360 357 0 +0 0 0
 0 0 -1 -1 0 0 14 347 43 361 ?0 321 345 13 358 -0 0 0 321 280 50 360 2 0 321 0 3
58 0 +0 0 -5e-6 0 0 -1 -1 0 0 14 321 1 362 ?347 344 286 13 360 +0 0 347 344 280
 81 1 362 899 128 321 363 0 361 0 364 81 1 363 878 148 321 0 362 365 366 367 81
 1 361 898 128 347 366 0 359 362 368 82 1 364 1805844776 81 1 366 879 148 347 0
 361 363 0 369 81 1 359 897 128 344 365 0 354 361 370 82 1 368 1811480872 81 1 3
65 877 148 344 0 359 371 363 372 81 1 354 896 128 331 371 0 351 359 373 82 1 370
 1812398376 81 1 371 876 148 331 0 354 353 365 374 82 1 373 1812660520 81 1 353
 875 148 328 0 351 350 371 375 83 3 374 .529411764705882 .549019607843137 .54901
9607843137 81 1 350 874 148 274 0 349 0 353 376 83 3 375 .529411764705882 .54901
9607843137 .549019607843137 83 3 376 .529411764705882 .549019607843137 .54901960
7843137 83 3 372 .529411764705882 .549019607843137 .549019607843137 83 3 369 .52
9411764705882 .549019607843137 .549019607843137 83 3 367 .529411764705882 .54901
9607843137 .549019607843137 82 1 355 1812922664 82 1 352 1813184808 19 275 95 0
 7 0 17 13 S0 74 20 273 4 0 0 362 272 366 10 0 0 0 0 0 0 0 0 0 0 0 0 0 0 0 0 81
 2 272 163 160 7 0 10 0 0 377 0 83 1 377 1 74 20 6 1 0 0 2 0 0 0 0 0 0 0 0 0 0 0
 0 0 0 0 0 0 0 0 80 2 5 378 379 9000 0 0 0 0 3 5 0 0 0 TFFFFFFFFFFFFF9 1 79 18 3
79 MULTI_BODY_ID_20011 0 
